P3
# Created by GIMP version 2.10.18 PNM plug-in
64 32
255
237
237
237
237
237
237
237
237
237
237
237
237
237
237
237
237
237
237
255
233
189
0
166
217
0
166
217
0
166
217
0
166
217
0
166
217
0
206
242
0
206
242
0
206
242
0
206
242
0
206
242
0
206
242
0
206
242
0
206
242
0
206
242
0
206
242
0
206
242
0
206
242
237
237
237
237
237
237
255
233
189
237
237
237
237
237
237
237
237
237
237
237
237
255
233
189
0
206
242
0
225
255
0
225
255
0
225
255
0
225
255
0
225
255
0
225
255
0
225
255
0
225
255
0
225
255
0
225
255
0
225
255
0
225
255
0
225
255
237
237
237
237
237
237
237
237
237
237
237
237
237
237
237
237
237
237
237
237
237
237
237
237
237
237
237
237
237
237
255
233
189
237
237
237
237
237
237
255
233
189
255
233
189
0
225
255
0
225
255
0
225
255
237
237
237
237
237
237
237
237
237
237
237
237
255
233
189
255
233
189
0
166
217
0
166
217
0
166
217
0
166
217
0
166
217
0
166
217
0
206
242
0
206
242
0
206
242
255
233
189
0
206
242
0
206
242
0
206
242
0
206
242
0
206
242
0
206
242
0
206
242
0
206
242
0
206
242
255
233
189
237
237
237
237
237
237
255
233
189
255
233
189
237
237
237
0
206
242
0
206
242
0
225
255
0
225
255
0
225
255
0
225
255
0
225
255
0
225
255
0
225
255
0
225
255
0
225
255
0
225
255
0
225
255
0
225
255
0
225
255
0
225
255
237
237
237
255
233
189
237
237
237
237
237
237
237
237
237
255
233
189
255
233
189
255
233
189
255
233
189
0
225
255
255
233
189
255
233
189
0
225
255
0
225
255
0
225
255
0
225
255
0
225
255
237
237
237
255
233
189
255
233
189
255
233
189
0
166
217
0
166
217
0
166
217
0
166
217
0
166
217
0
166
217
0
166
217
0
166
217
0
206
242
0
206
242
0
206
242
237
237
237
237
237
237
237
237
237
237
237
237
0
206
242
0
206
242
0
206
242
0
206
242
0
206
242
0
206
242
0
206
242
237
237
237
237
237
237
237
237
237
237
237
237
255
233
189
0
206
242
0
206
242
0
225
255
0
225
255
0
225
255
0
225
255
0
225
255
0
225
255
0
225
255
0
225
255
0
225
255
0
225
255
0
225
255
0
225
255
0
225
255
0
225
255
0
225
255
0
225
255
255
233
189
255
233
189
255
233
189
255
233
189
0
225
255
0
225
255
0
225
255
0
225
255
0
225
255
0
225
255
0
225
255
0
225
255
0
225
255
0
225
255
0
225
255
0
123
199
0
123
199
0
166
217
0
166
217
0
166
217
0
166
217
0
166
217
0
166
217
0
166
217
0
166
217
237
237
237
237
237
237
237
237
237
237
237
237
237
237
237
237
237
237
237
237
237
255
233
189
237
237
237
255
233
189
0
206
242
0
206
242
0
206
242
0
206
242
0
206
242
0
206
242
237
237
237
255
233
189
255
233
189
255
233
189
0
206
242
0
206
242
0
206
242
0
225
255
0
225
255
237
237
237
0
225
255
0
225
255
0
225
255
237
237
237
237
237
237
237
237
237
0
225
255
0
225
255
0
225
255
0
225
255
0
225
255
0
225
255
0
225
255
0
225
255
0
225
255
0
225
255
0
225
255
0
225
255
0
225
255
0
225
255
0
225
255
0
225
255
0
225
255
0
225
255
0
225
255
0
225
255
0
225
255
0
225
255
0
123
199
0
123
199
0
166
217
0
166
217
0
166
217
0
166
217
0
166
217
237
237
237
237
237
237
237
237
237
237
237
237
237
237
237
237
237
237
255
233
189
237
237
237
237
237
237
237
237
237
237
237
237
237
237
237
255
233
189
0
206
242
0
206
242
0
206
242
0
206
242
0
206
242
0
206
242
0
206
242
0
206
242
0
206
242
0
206
242
0
206
242
0
206
242
0
206
242
0
225
255
237
237
237
237
237
237
0
225
255
237
237
237
237
237
237
237
237
237
255
233
189
255
233
189
255
233
189
255
233
189
255
233
189
0
225
255
0
225
255
0
225
255
0
225
255
0
225
255
0
225
255
0
225
255
0
225
255
0
225
255
0
225
255
0
225
255
0
225
255
0
225
255
0
225
255
0
225
255
0
225
255
0
225
255
0
225
255
0
225
255
0
123
199
0
123
199
0
166
217
0
166
217
0
166
217
0
166
217
237
237
237
237
237
237
237
237
237
237
237
237
237
237
237
255
233
189
255
233
189
255
233
189
237
237
237
237
237
237
237
237
237
255
233
189
255
233
189
255
233
189
0
206
242
0
206
242
0
206
242
0
206
242
0
206
242
0
206
242
0
206
242
0
206
242
0
206
242
0
206
242
0
206
242
0
206
242
0
206
242
237
237
237
237
237
237
237
237
237
237
237
237
237
237
237
255
233
189
255
233
189
0
225
255
0
225
255
0
225
255
0
225
255
0
225
255
0
225
255
0
225
255
0
225
255
0
225
255
0
225
255
0
225
255
0
225
255
0
225
255
0
225
255
0
225
255
255
200
0
255
200
0
255
200
0
255
200
0
255
200
0
0
225
255
0
225
255
0
225
255
0
225
255
0
123
199
0
123
199
0
123
199
0
166
217
237
237
237
255
233
189
255
233
189
237
237
237
237
237
237
237
237
237
255
233
189
255
233
189
237
237
237
237
237
237
237
237
237
237
237
237
255
233
189
0
206
242
0
206
242
0
206
242
0
206
242
0
206
242
0
206
242
0
206
242
0
206
242
0
206
242
0
206
242
0
206
242
0
206
242
0
206
242
0
206
242
0
206
242
0
206
242
237
237
237
237
237
237
237
237
237
255
233
189
255
233
189
0
225
255
0
225
255
237
237
237
237
237
237
237
237
237
237
237
237
255
233
189
0
225
255
0
225
255
0
225
255
0
225
255
0
225
255
0
225
255
0
225
255
0
225
255
255
200
0
255
200
0
255
200
0
255
200
0
255
200
0
255
200
0
255
200
0
255
200
0
255
200
0
0
225
255
0
225
255
0
123
199
0
123
199
0
123
199
0
166
217
237
237
237
255
233
189
237
237
237
237
237
237
237
237
237
237
237
237
237
237
237
237
237
237
237
237
237
237
237
237
237
237
237
255
233
189
0
206
242
0
206
242
0
206
242
0
206
242
0
206
242
0
206
242
0
206
242
0
206
242
0
206
242
0
206
242
0
206
242
0
206
242
0
206
242
0
206
242
0
206
242
0
206
242
0
206
242
237
237
237
237
237
237
237
237
237
237
237
237
237
237
237
255
233
189
0
225
255
255
233
189
0
225
255
0
225
255
0
225
255
0
225
255
0
225
255
0
225
255
0
225
255
0
225
255
0
225
255
0
225
255
0
225
255
255
200
0
255
200
0
255
200
0
255
200
0
255
200
0
255
200
0
255
200
0
255
200
0
255
200
0
255
200
0
255
200
0
0
225
255
0
123
199
0
123
199
0
123
199
0
166
217
237
237
237
237
237
237
237
237
237
237
237
237
255
233
189
237
237
237
237
237
237
237
237
237
255
233
189
255
233
189
237
237
237
255
233
189
0
206
242
0
206
242
0
206
242
0
206
242
0
206
242
237
237
237
255
233
189
0
206
242
0
206
242
0
206
242
0
206
242
0
206
242
0
206
242
0
206
242
0
206
242
0
206
242
0
206
242
0
206
242
237
237
237
255
233
189
255
233
189
0
225
255
0
225
255
0
225
255
0
225
255
0
225
255
0
225
255
0
225
255
0
225
255
0
225
255
0
225
255
0
225
255
0
225
255
0
225
255
0
225
255
0
225
255
255
200
0
255
200
0
255
200
0
255
200
0
255
200
0
255
200
0
255
200
0
255
200
0
255
200
0
255
200
0
255
200
0
0
225
255
0
123
199
0
123
199
0
123
199
0
166
217
237
237
237
237
237
237
237
237
237
255
233
189
255
233
189
237
237
237
237
237
237
255
233
189
0
166
217
0
206
242
0
206
242
255
233
189
0
206
242
0
206
242
0
206
242
0
206
242
0
206
242
0
206
242
0
206
242
0
206
242
0
206
242
0
206
242
0
206
242
0
206
242
0
206
242
0
206
242
0
206
242
0
206
242
0
206
242
0
206
242
0
225
255
0
225
255
0
225
255
0
225
255
0
225
255
0
225
255
0
225
255
0
225
255
0
225
255
0
225
255
0
225
255
0
225
255
0
225
255
0
225
255
0
225
255
0
225
255
0
225
255
255
200
0
255
200
0
255
200
0
255
200
0
255
200
0
255
200
0
255
200
0
255
200
0
255
200
0
255
200
0
255
200
0
255
200
0
255
200
0
0
123
199
0
123
199
0
123
199
237
237
237
237
237
237
237
237
237
237
237
237
237
237
237
237
237
237
237
237
237
237
237
237
0
166
217
0
166
217
0
206
242
237
237
237
255
233
189
0
206
242
0
206
242
0
206
242
0
206
242
0
206
242
0
206
242
0
206
242
0
206
242
0
206
242
0
206
242
0
206
242
0
206
242
0
206
242
0
206
242
0
206
242
0
206
242
0
206
242
0
206
242
0
225
255
0
225
255
0
225
255
0
225
255
0
225
255
0
225
255
0
225
255
0
225
255
237
237
237
255
233
189
0
225
255
0
225
255
0
225
255
0
225
255
0
225
255
0
225
255
0
225
255
255
200
0
255
200
0
255
200
0
255
200
0
255
200
0
255
200
0
255
200
0
255
200
0
255
200
0
255
200
0
255
200
0
255
200
0
255
200
0
0
123
199
0
123
199
237
237
237
255
233
189
0
166
217
0
166
217
0
166
217
237
237
237
237
237
237
255
233
189
0
166
217
0
166
217
0
166
217
0
206
242
255
233
189
0
206
242
0
206
242
0
206
242
0
206
242
0
206
242
0
206
242
0
206
242
0
206
242
194
186
170
0
206
242
0
206
242
0
206
242
0
206
242
0
206
242
0
206
242
0
206
242
0
206
242
0
206
242
0
206
242
0
225
255
0
225
255
0
225
255
0
225
255
0
225
255
0
225
255
0
225
255
0
225
255
0
225
255
0
225
255
0
225
255
0
225
255
0
225
255
0
225
255
0
225
255
0
225
255
0
225
255
255
200
0
255
200
0
255
200
0
255
200
0
255
200
0
255
200
0
255
200
0
255
200
0
255
200
0
255
200
0
255
200
0
255
200
0
255
200
0
0
123
199
0
123
199
0
123
199
0
166
217
0
166
217
0
166
217
0
166
217
0
166
217
237
237
237
237
237
237
255
233
189
0
166
217
0
166
217
0
206
242
0
206
242
0
206
242
0
206
242
0
206
242
0
206
242
0
206
242
0
206
242
0
206
242
194
186
170
212
212
212
212
212
212
0
206
242
0
206
242
0
206
242
0
206
242
0
206
242
0
206
242
0
206
242
0
206
242
0
206
242
0
225
255
0
225
255
0
225
255
0
225
255
0
225
255
0
225
255
0
225
255
0
225
255
0
225
255
0
225
255
0
225
255
0
225
255
0
225
255
0
225
255
0
225
255
0
225
255
0
225
255
255
200
0
255
200
0
255
200
0
255
200
0
255
200
0
255
200
0
255
200
0
255
200
0
255
200
0
255
200
0
255
200
0
255
200
0
255
200
0
0
123
199
0
123
199
0
123
199
0
166
217
0
166
217
0
166
217
0
166
217
0
166
217
0
166
217
255
233
189
255
233
189
0
166
217
0
166
217
0
206
242
0
206
242
0
206
242
0
206
242
0
206
242
0
206
242
0
206
242
0
206
242
0
206
242
194
186
170
194
186
170
212
212
212
0
206
242
0
206
242
0
206
242
0
206
242
0
206
242
0
206
242
0
206
242
0
206
242
237
237
237
237
237
237
237
237
237
237
237
237
255
233
189
255
233
189
0
225
255
0
225
255
0
225
255
0
225
255
0
225
255
0
225
255
0
225
255
0
225
255
0
225
255
0
225
255
0
225
255
0
225
255
255
200
0
255
200
0
255
200
0
255
200
0
255
200
0
255
200
0
255
200
0
255
200
0
255
200
0
255
200
0
255
200
0
255
200
0
255
200
0
0
123
199
0
123
199
0
123
199
0
166
217
237
237
237
255
233
189
255
233
189
0
166
217
0
166
217
0
166
217
0
166
217
0
166
217
0
166
217
0
206
242
0
206
242
0
206
242
0
206
242
0
206
242
0
206
242
0
206
242
0
206
242
0
206
242
0
206
242
194
186
170
194
186
170
212
212
212
0
206
242
0
206
242
0
206
242
0
206
242
237
237
237
237
237
237
237
237
237
237
237
237
237
237
237
237
237
237
237
237
237
237
237
237
237
237
237
255
233
189
0
225
255
0
225
255
0
225
255
0
225
255
0
225
255
0
225
255
0
143
45
0
143
45
0
176
21
0
176
21
0
176
21
0
176
21
0
176
21
0
176
21
0
176
21
255
200
0
255
200
0
255
200
0
255
200
0
255
200
0
255
200
0
255
200
0
255
200
0
0
225
255
0
123
199
0
123
199
0
123
199
0
166
217
0
166
217
0
166
217
0
166
217
0
166
217
0
166
217
0
166
217
0
166
217
0
166
217
0
166
217
0
206
242
0
206
242
0
206
242
0
206
242
0
206
242
0
206
242
0
206
242
0
206
242
0
206
242
0
206
242
0
206
242
194
186
170
194
186
170
212
212
212
0
206
242
0
206
242
237
237
237
237
237
237
255
233
189
237
237
237
237
237
237
255
233
189
237
237
237
237
237
237
255
233
189
0
225
255
0
225
255
0
225
255
0
225
255
0
225
255
0
225
255
0
143
45
0
143
45
0
143
45
0
143
45
0
143
45
0
176
21
0
176
21
0
176
21
0
176
21
0
176
21
0
176
21
0
176
21
0
176
21
255
200
0
255
200
0
255
200
0
255
200
0
255
200
0
255
200
0
0
225
255
0
123
199
0
123
199
0
123
199
0
123
199
0
166
217
0
166
217
0
166
217
0
166
217
0
166
217
0
166
217
0
166
217
0
166
217
0
166
217
0
166
217
0
206
242
0
206
242
0
206
242
0
206
242
0
206
242
0
206
242
0
206
242
0
206
242
0
206
242
0
206
242
0
206
242
194
186
170
212
212
212
212
212
212
0
206
242
237
237
237
237
237
237
237
237
237
255
233
189
237
237
237
237
237
237
237
237
237
255
233
189
255
233
189
237
237
237
255
233
189
0
225
255
0
225
255
0
225
255
0
225
255
0
143
45
0
143
45
0
143
45
0
143
45
0
143
45
0
176
21
0
176
21
0
176
21
0
176
21
0
176
21
0
176
21
0
176
21
0
176
21
0
176
21
255
200
0
255
200
0
255
200
0
255
200
0
0
225
255
0
225
255
0
123
199
0
123
199
0
123
199
0
123
199
0
166
217
0
166
217
0
166
217
0
166
217
0
166
217
0
166
217
0
166
217
0
166
217
0
166
217
0
166
217
0
206
242
0
206
242
0
206
242
255
233
189
255
233
189
0
206
242
0
206
242
0
206
242
0
206
242
0
206
242
0
206
242
0
206
242
122
122
122
161
161
161
0
206
242
0
206
242
237
237
237
237
237
237
237
237
237
237
237
237
237
237
237
237
237
237
237
237
237
237
237
237
255
233
189
0
225
255
0
225
255
0
225
255
0
225
255
0
143
45
0
143
45
0
143
45
0
143
45
0
143
45
0
143
45
0
143
45
0
176
21
0
176
21
0
176
21
0
176
21
0
176
21
0
176
21
0
176
21
0
176
21
0
176
21
255
200
0
0
225
255
0
225
255
0
225
255
0
225
255
0
143
45
0
123
199
0
123
199
0
123
199
0
166
217
0
166
217
0
166
217
0
166
217
0
166
217
0
166
217
0
166
217
0
166
217
0
166
217
0
166
217
0
206
242
0
206
242
237
237
237
237
237
237
237
237
237
255
233
189
255
233
189
255
233
189
0
206
242
0
206
242
0
206
242
0
206
242
122
122
122
161
161
161
0
206
242
0
206
242
0
206
242
0
206
242
237
237
237
237
237
237
255
233
189
255
233
189
255
233
189
0
225
255
0
225
255
0
225
255
0
225
255
0
225
255
0
143
45
0
143
45
0
143
45
0
143
45
0
143
45
0
143
45
0
143
45
0
143
45
0
176
21
0
176
21
0
176
21
0
176
21
0
176
21
0
176
21
0
176
21
0
176
21
0
176
21
0
176
21
0
176
21
0
225
255
0
225
255
0
225
255
0
143
45
0
143
45
0
176
21
0
176
21
0
166
217
0
166
217
0
166
217
0
166
217
0
166
217
0
166
217
0
166
217
0
166
217
0
166
217
0
166
217
0
206
242
255
233
189
237
237
237
237
237
237
237
237
237
237
237
237
237
237
237
237
237
237
255
233
189
122
67
0
122
67
0
156
104
0
156
104
0
156
104
0
156
104
0
156
104
0
0
206
242
0
206
242
0
206
242
0
206
242
0
206
242
0
225
255
0
225
255
0
225
255
0
225
255
0
225
255
0
225
255
0
143
45
0
143
45
0
143
45
0
143
45
0
143
45
0
143
45
0
143
45
0
143
45
0
143
45
0
176
21
0
176
21
0
176
21
0
176
21
0
176
21
0
176
21
0
176
21
0
176
21
0
176
21
0
176
21
0
176
21
0
176
21
0
225
255
0
225
255
0
143
45
0
143
45
0
176
21
0
176
21
0
176
21
0
176
21
0
166
217
0
166
217
0
166
217
237
237
237
255
233
189
255
233
189
0
166
217
0
166
217
0
206
242
255
233
189
237
237
237
237
237
237
237
237
237
237
237
237
255
233
189
237
237
237
122
67
0
102
48
0
135
0
0
122
67
0
156
104
0
156
104
0
156
104
0
156
104
0
156
104
0
237
237
237
237
237
237
237
237
237
237
237
237
255
233
189
255
233
189
255
233
189
0
225
255
0
225
255
0
143
45
0
143
45
0
143
45
0
143
45
0
143
45
0
143
45
0
143
45
0
143
45
0
143
45
0
143
45
0
143
45
0
176
21
0
176
21
0
176
21
0
176
21
0
176
21
0
176
21
0
176
21
0
176
21
0
176
21
0
176
21
0
176
21
0
176
21
0
225
255
0
143
45
0
143
45
0
176
21
0
176
21
0
176
21
0
176
21
0
176
21
0
166
217
0
166
217
0
166
217
0
166
217
0
166
217
0
166
217
0
166
217
0
206
242
237
237
237
237
237
237
255
233
189
237
237
237
237
237
237
237
237
237
122
67
0
102
48
0
135
0
0
135
0
0
135
0
0
122
67
0
156
104
0
156
104
0
156
104
0
156
104
0
156
104
0
237
237
237
237
237
237
0
206
242
0
225
255
0
225
255
0
225
255
0
225
255
0
143
45
0
143
45
0
143
45
0
143
45
0
143
45
0
143
45
0
143
45
0
143
45
0
143
45
0
143
45
0
143
45
0
143
45
0
176
21
0
176
21
0
176
21
0
176
21
0
176
21
0
176
21
0
176
21
0
176
21
0
176
21
0
176
21
0
176
21
0
176
21
0
176
21
0
143
45
0
143
45
0
176
21
0
176
21
0
176
21
0
176
21
0
176
21
0
176
21
0
176
21
0
166
217
0
166
217
0
166
217
0
166
217
0
166
217
0
206
242
237
237
237
237
237
237
255
233
189
237
237
237
237
237
237
122
67
0
102
48
0
156
0
0
156
0
0
135
0
0
135
0
0
135
0
0
122
67
0
156
104
0
156
104
0
156
104
0
156
104
0
156
104
0
237
237
237
255
233
189
0
225
255
0
225
255
0
225
255
0
143
45
0
143
45
0
143
45
0
143
45
0
143
45
0
143
45
0
143
45
0
143
45
0
143
45
0
143
45
0
143
45
0
143
45
0
143
45
0
176
21
0
176
21
0
176
21
0
176
21
0
176
21
0
176
21
0
176
21
0
176
21
0
176
21
0
176
21
0
176
21
0
176
21
0
176
21
0
143
45
0
143
45
0
143
45
0
176
21
0
176
21
0
176
21
0
176
21
0
176
21
0
176
21
0
176
21
0
166
217
0
166
217
0
166
217
0
166
217
0
206
242
237
237
237
237
237
237
237
237
237
237
237
237
237
237
237
255
233
189
237
237
237
156
0
0
156
0
0
156
0
0
135
0
0
135
0
0
156
0
0
156
0
0
156
0
0
156
0
0
191
0
0
237
237
237
0
206
242
0
206
242
0
225
255
0
225
255
0
225
255
0
143
45
0
143
45
0
143
45
0
143
45
0
143
45
0
143
45
0
143
45
0
143
45
0
143
45
0
143
45
0
143
45
0
143
45
0
143
45
0
176
21
0
176
21
0
176
21
0
176
21
0
176
21
0
176
21
0
176
21
0
176
21
0
176
21
0
176
21
0
176
21
0
176
21
0
176
21
0
143
45
0
143
45
0
143
45
0
176
21
0
176
21
0
176
21
0
176
21
0
176
21
0
176
21
0
176
21
0
176
21
0
166
217
0
166
217
0
166
217
0
206
242
0
206
242
0
206
242
237
237
237
237
237
237
237
237
237
237
237
237
237
237
237
156
0
0
156
0
0
156
0
0
156
0
0
135
0
0
156
0
0
156
0
0
191
0
0
191
0
0
191
0
0
0
206
242
0
206
242
0
206
242
0
225
255
0
143
45
0
143
45
0
143
45
0
143
45
0
143
45
0
143
45
0
143
45
0
143
45
0
143
45
0
143
45
0
143
45
0
143
45
0
143
45
0
143
45
0
143
45
0
143
45
0
176
21
0
176
21
0
176
21
0
176
21
0
176
21
0
176
21
0
176
21
0
176
21
0
176
21
0
176
21
0
176
21
0
176
21
0
143
45
0
143
45
0
143
45
0
176
21
0
176
21
0
176
21
0
176
21
0
176
21
0
176
21
0
176
21
0
176
21
0
176
21
0
166
217
0
166
217
0
206
242
0
206
242
0
206
242
0
206
242
0
206
242
0
206
242
0
206
242
0
206
242
156
0
0
102
48
0
102
48
0
156
0
0
156
0
0
191
0
0
191
0
0
0
169
199
134
200
212
191
0
0
0
206
242
0
206
242
0
206
242
0
143
45
0
143
45
0
143
45
0
143
45
0
143
45
0
143
45
0
143
45
0
143
45
0
143
45
0
143
45
0
143
45
0
143
45
0
143
45
0
143
45
0
143
45
0
143
45
0
143
45
0
176
21
0
176
21
0
176
21
0
176
21
0
176
21
0
176
21
0
176
21
0
176
21
0
176
21
0
176
21
0
176
21
0
176
21
0
143
45
0
143
45
0
143
45
0
176
21
0
176
21
0
176
21
0
176
21
0
176
21
0
176
21
0
176
21
0
176
21
0
176
21
0
176
21
0
176
21
0
166
217
0
206
242
0
206
242
0
206
242
0
206
242
0
206
242
0
206
242
0
206
242
156
0
0
102
48
0
102
48
0
156
0
0
156
0
0
191
0
0
191
0
0
175
222
224
0
169
199
191
0
0
0
206
242
0
206
242
0
143
45
0
143
45
0
143
45
0
143
45
0
143
45
0
143
45
0
143
45
0
143
45
0
143
45
0
143
45
0
143
45
0
143
45
0
143
45
0
143
45
0
143
45
0
143
45
0
143
45
0
143
45
0
176
21
0
176
21
0
176
21
0
176
21
0
176
21
0
176
21
0
176
21
0
176
21
0
176
21
0
176
21
0
176
21
0
176
21
0
143
45
0
143
45
0
143
45
0
176
21
0
176
21
0
176
21
0
176
21
0
176
21
0
176
21
0
176
21
0
176
21
0
176
21
0
176
21
0
176
21
0
176
21
0
206
242
0
206
242
0
206
242
0
206
242
0
206
242
0
206
242
0
206
242
156
0
0
102
48
0
102
48
0
156
0
0
156
0
0
191
0
0
191
0
0
191
0
0
191
0
0
191
0
0
0
206
242
0
206
242
0
143
45
0
143
45
0
143
45
0
143
45
0
143
45
0
143
45
0
143
45
0
143
45
0
143
45
0
143
45
0
143
45
0
143
45
0
143
45
0
143
45
0
143
45
0
143
45
0
143
45
0
143
45
0
143
45
0
176
21
0
176
21
0
176
21
0
176
21
0
176
21
0
176
21
0
176
21
0
176
21
0
176
21
0
176
21
0
176
21
85
204
0
85
204
0
85
204
0
85
204
0
85
204
0
85
204
0
85
204
0
85
204
0
85
204
0
85
204
0
85
204
0
85
204
0
85
204
0
85
204
0
85
204
0
85
204
0
85
204
0
85
204
0
85
204
0
85
204
0
0
130
67
0
130
67
0
130
67
0
130
67
0
130
67
0
130
67
0
130
67
0
130
67
0
130
67
0
130
67
0
130
67
85
204
0
85
204
0
85
204
0
85
204
0
85
204
0
85
204
0
85
204
0
85
204
0
85
204
0
85
204
0
85
204
0
85
204
0
85
204
0
85
204
0
85
204
0
85
204
0
85
204
0
85
204
0
85
204
0
85
204
0
85
204
0
85
204
0
85
204
0
85
204
0
85
204
0
85
204
0
85
204
0
85
204
0
85
204
0
85
204
0
85
204
0
85
204
0
85
204
0
85
204
0
85
204
0
85
204
0
85
204
0
85
204
0
85
204
0
85
204
0
85
204
0
85
204
0
85
204
0
85
204
0
85
204
0
85
204
0
85
204
0
85
204
0
85
204
0
85
204
0
85
204
0
0
130
67
0
130
67
0
130
67
0
130
67
0
130
67
0
130
67
0
130
67
0
130
67
0
130
67
0
130
67
0
130
67
85
204
0
85
204
0
85
204
0
85
204
0
85
204
0
85
204
0
85
204
0
85
204
0
85
204
0
85
204
0
85
204
0
85
204
0
85
204
0
85
204
0
85
204
0
85
204
0
85
204
0
85
204
0
85
204
0
85
204
0
85
204
0
85
204
0
85
204
0
85
204
0
85
204
0
85
204
0
85
204
0
85
204
0
85
204
0
85
204
0
85
204
0
85
204
0
85
204
0
85
204
0
85
204
0
85
204
0
85
204
0
85
204
0
85
204
0
85
204
0
85
204
0
85
204
0
85
204
0
85
204
0
85
204
0
85
204
0
85
204
0
85
204
0
85
204
0
85
204
0
85
204
0
0
130
67
0
130
67
0
130
67
0
130
67
0
130
67
0
130
67
0
130
67
0
130
67
0
130
67
0
130
67
0
130
67
85
204
0
85
204
0
85
204
0
85
204
0
85
204
0
85
204
0
85
204
0
85
204
0
85
204
0
85
204
0
85
204
0
85
204
0
85
204
0
85
204
0
85
204
0
85
204
0
85
204
0
85
204
0
85
204
0
85
204
0
85
204
0
85
204
0
85
204
0
85
204
0
85
204
0
85
204
0
85
204
0
85
204
0
85
204
0
85
204
0
85
204
0
85
204
0
85
204
0
85
204
0
85
204
0
85
204
0
85
204
0
85
204
0
85
204
0
85
204
0
85
204
0
85
204
0
85
204
0
85
204
0
85
204
0
85
204
0
85
204
0
85
204
0
85
204
0
85
204
0
85
204
0
0
130
67
0
130
67
0
130
67
0
130
67
0
130
67
0
130
67
0
130
67
0
130
67
0
130
67
0
130
67
0
130
67
85
204
0
85
204
0
85
204
0
85
204
0
85
204
0
85
204
0
85
204
0
85
204
0
85
204
0
85
204
0
85
204
0
85
204
0
85
204
0
85
204
0
85
204
0
85
204
0
85
204
0
85
204
0
85
204
0
85
204
0
85
204
0
85
204
0
85
204
0
85
204
0
85
204
0
85
204
0
85
204
0
85
204
0
85
204
0
85
204
0
85
204
0
85
204
0
85
204
0
85
204
0
85
204
0
85
204
0
85
204
0
85
204
0
85
204
0
